<svg height="512pt" viewBox="0 0 512 512.04456" width="512pt" xmlns="http://www.w3.org/2000/svg"><path d="m388.4375 317.835938c-3.976562 0-7.457031-2.65625-8.511719-6.488282-.195312-.703125-18.539062-71.273437 56.992188-115.871094 4.183593-2.328124 9.464843-.898437 11.898437 3.226563s1.132813 9.441406-2.929687 11.976563c-64.0625 37.816406-49.101563 95.40625-48.941407 95.992187.621094 2.257813.316407 4.667969-.84375 6.703125-1.15625 2.035156-3.078124 3.527344-5.335937 4.144531-.757813.210938-1.542969.320313-2.328125.316407zm0 0" fill="#59474e"/><path d="m353.125 223.648438v-152.984376c-.027344-9.738281-7.914062-17.625-17.65625-17.652343h-317.792969c-9.738281.027343-17.6249998 7.914062-17.6523435 17.652343v423.726563c.0273437 9.738281 7.9140625 17.625 17.6523435 17.652344h317.792969c3.730469.023437 7.359375-1.1875 10.332031-3.441407zm0 0" fill="#805333"/><path d="m317.816406 211.996094v-114.847656c0-4.875-3.953125-8.828126-8.828125-8.828126h-264.828125c-4.875 0-8.828125 3.953126-8.828125 8.828126v370.757812c0 4.875 3.953125 8.828125 8.828125 8.828125h273.65625zm0 0" fill="#f9eab0"/><path d="m326.644531 282.527344c-44.140625-8.828125-34.085937-67.011719-34.074219-67.035156.738282-3.269532 22.15625-3.585938 25.261719-3.53125 25.730469.199218 48.558594 16.542968 57.035157 40.835937 5.984374 15.527344 6.320312 41.207031 13.570312 56.214844" fill="#4c8056"/><path d="m291.332031 53.011719v35.308593c-.027343 9.738282-7.914062 17.625-17.65625 17.65625h-194.207031c-9.738281-.03125-17.625-7.917968-17.652344-17.65625v-35.308593c.027344-9.742188 7.914063-17.628907 17.652344-17.65625h53.851562c4.175782-20.570313 22.261719-35.355469 43.253907-35.355469 20.992187 0 39.078125 14.785156 43.253906 35.355469h53.847656c9.742188.027343 17.628907 7.914062 17.65625 17.65625zm0 0" fill="#95a5a5"/><path d="m105.953125 79.492188h-8.828125c-4.875 0-8.828125-3.953126-8.828125-8.828126s3.953125-8.828124 8.828125-8.828124h8.828125c4.875 0 8.828125 3.953124 8.828125 8.828124s-3.953125 8.828126-8.828125 8.828126zm0 0" fill="#547580"/><path d="m256.023438 79.492188h-114.761719c-4.875 0-8.824219-3.953126-8.824219-8.828126s3.949219-8.828124 8.824219-8.828124h114.761719c4.875 0 8.828124 3.953124 8.828124 8.828124s-3.953124 8.828126-8.828124 8.828126zm0 0" fill="#547580"/><path d="m474.503906 291.707031c-10.242187-6.039062-21.917968-9.210937-33.808594-9.179687h-19.332031c-3.355469.03125-6.691406.566406-9.886719 1.589844h-.089843c-14.082031 5.214843-23.300781 18.792968-22.949219 33.808593.292969-14.777343-8.65625-28.167969-22.421875-33.546875-1.0625-.351562-2.121094-.703125-3.179687-.96875-.617188-.089844-1.234376-.265625-1.855469-.351562-1.800781-.355469-3.632813-.535156-5.472657-.53125h-19.332031c-39.371093 0-71.324219 34.25-71.324219 76.535156v38.222656c-.113281 24.832032 7.507813 49.082032 21.800782 69.386719 19.332031 28.117187 51.15625 45.050781 85.277344 45.371094h33.015624c59.144532 0 107.078126-51.375 107.078126-114.757813v-38.222656c.371093-27.527344-13.917969-53.179688-37.519532-67.355469zm0 0" fill="#c03a2b"/><path d="m485.539062 332.578125v38.226563c0 63.378906-47.933593 114.757812-107.078124 114.757812h-33.015626c-21.082031-.035156-41.632812-6.640625-58.792968-18.890625-14.292969-20.304687-21.914063-44.554687-21.800782-69.386719v-38.222656c0-42.285156 31.953126-76.535156 71.324219-76.535156h19.332031c1.839844-.003906 3.671876.175781 5.472657.53125.621093.085937 1.238281.261718 1.855469.351562 1.058593.265625 2.117187.617188 3.179687.96875 13.765625 5.378906 22.714844 18.769532 22.421875 33.546875-.351562-15.015625 8.867188-28.59375 22.949219-33.808593h.089843c3.195313-1.023438 6.53125-1.558594 9.886719-1.589844h19.332031c11.890626-.03125 23.566407 3.140625 33.808594 9.179687 7.265625 12.394531 11.074219 26.507813 11.035156 40.871094zm0 0" fill="#e64c3c"/><path d="m300.160156 370.804688c-4.875 0-8.828125-3.953126-8.828125-8.828126 0-41.199218 31.1875-52.085937 32.519531-52.515624 2.988282-1.011719 6.289063-.351563 8.660157 1.730468 2.371093 2.082032 3.449219 5.269532 2.828125 8.363282-.617188 3.09375-2.839844 5.621093-5.828125 6.632812-.996094.355469-20.523438 7.769531-20.523438 35.789062 0 4.875-3.953125 8.828126-8.828125 8.828126zm0 0" fill="#fb7b76"/><path d="m79.46875 150.113281h26.484375c4.875 0 8.828125 3.953125 8.828125 8.828125v26.480469c0 4.878906-3.953125 8.828125-8.828125 8.828125h-26.484375c-4.875 0-8.824219-3.949219-8.824219-8.828125v-26.480469c0-4.875 3.949219-8.828125 8.824219-8.828125zm0 0" fill="#fff"/><path d="m79.46875 229.5625h26.484375c4.875 0 8.828125 3.953125 8.828125 8.828125v26.480469c0 4.875-3.953125 8.828125-8.828125 8.828125h-26.484375c-4.875 0-8.824219-3.953125-8.824219-8.828125v-26.480469c0-4.875 3.949219-8.828125 8.824219-8.828125zm0 0" fill="#fff"/><path d="m79.46875 309.011719h26.484375c4.875 0 8.828125 3.949219 8.828125 8.824219v26.484374c0 4.875-3.953125 8.828126-8.828125 8.828126h-26.484375c-4.875 0-8.824219-3.953126-8.824219-8.828126v-26.484374c0-4.875 3.949219-8.824219 8.824219-8.824219zm0 0" fill="#fff"/><path d="m79.46875 388.457031h26.484375c4.875 0 8.828125 3.953125 8.828125 8.828125v26.484375c0 4.875-3.953125 8.828125-8.828125 8.828125h-26.484375c-4.875 0-8.824219-3.953125-8.824219-8.828125v-26.484375c0-4.875 3.949219-8.828125 8.824219-8.828125zm0 0" fill="#fff"/><g fill="#35495e"><path d="m105.953125 203.078125h-26.484375c-9.75 0-17.652344-7.902344-17.652344-17.65625v-26.480469c0-9.75 7.902344-17.65625 17.652344-17.65625h26.484375c9.75 0 17.65625 7.90625 17.65625 17.65625v26.480469c0 9.753906-7.90625 17.65625-17.65625 17.65625zm-26.484375-44.136719v26.480469h26.484375v-26.480469zm0 0"/><path d="m105.953125 282.527344h-26.484375c-9.75 0-17.652344-7.90625-17.652344-17.65625v-26.480469c0-9.753906 7.902344-17.65625 17.652344-17.65625h26.484375c9.75 0 17.65625 7.902344 17.65625 17.65625v26.480469c0 9.75-7.90625 17.65625-17.65625 17.65625zm-26.484375-44.136719v26.480469h26.484375v-26.480469zm0 0"/><path d="m105.953125 361.976562h-26.484375c-9.75 0-17.652344-7.90625-17.652344-17.65625v-26.484374c0-9.75 7.902344-17.652344 17.652344-17.652344h26.484375c9.75 0 17.65625 7.902344 17.65625 17.652344v26.484374c0 9.75-7.90625 17.65625-17.65625 17.65625zm-26.484375-44.140624v26.484374h26.484375v-26.484374zm0 0"/><path d="m105.953125 441.421875h-26.484375c-9.75 0-17.652344-7.902344-17.652344-17.652344v-26.484375c0-9.75 7.902344-17.65625 17.652344-17.65625h26.484375c9.75 0 17.65625 7.90625 17.65625 17.65625v26.484375c0 9.75-7.90625 17.652344-17.65625 17.652344zm-26.484375-44.136719v26.484375h26.484375v-26.484375zm0 0"/><path d="m273.675781 185.421875h-123.585937c-4.875 0-8.828125-3.949219-8.828125-8.824219 0-4.878906 3.953125-8.828125 8.828125-8.828125h123.585937c4.878907 0 8.828125 3.949219 8.828125 8.828125 0 4.875-3.949218 8.824219-8.828125 8.824219zm0 0"/><path d="m247.195312 264.871094h-97.105468c-4.875 0-8.828125-3.953125-8.828125-8.828125s3.953125-8.828125 8.828125-8.828125h97.105468c4.875 0 8.828126 3.953125 8.828126 8.828125s-3.953126 8.828125-8.828126 8.828125zm0 0"/><path d="m229.539062 344.320312h-79.449218c-4.875 0-8.828125-3.953124-8.828125-8.828124s3.953125-8.828126 8.828125-8.828126h79.449218c4.875 0 8.828126 3.953126 8.828126 8.828126s-3.953126 8.828124-8.828126 8.828124zm0 0"/><path d="m229.539062 423.769531h-79.449218c-4.875 0-8.828125-3.953125-8.828125-8.828125s3.953125-8.828125 8.828125-8.828125h79.449218c4.875 0 8.828126 3.953125 8.828126 8.828125s-3.953126 8.828125-8.828126 8.828125zm0 0"/></g></svg>